<svg width="161" height="30" viewBox="0 0 161 30" fill="none" xmlns="http://www.w3.org/2000/svg">
<path d="M7.66797 24.3867C6.87109 24.3867 6.07422 24.2461 5.27734 23.9648C4.50391 23.6836 3.75391 23.2734 3.02734 22.7344C2.30078 22.1719 1.66797 21.4336 1.12891 20.5195C0.589844 19.6055 0.296875 18.5156 0.25 17.25V9.76172C0.25 9.10547 0.484375 8.56641 0.953125 8.14453C1.44531 7.69922 2.01953 7.47656 2.67578 7.47656C4.08203 7.59375 4.84375 8.35547 4.96094 9.76172V16.9688C4.98438 17.5312 5.10156 18.0117 5.3125 18.4102C5.52344 18.7852 5.75781 19.0898 6.01562 19.3242C6.27344 19.5352 6.53125 19.6992 6.78906 19.8164C7.07031 19.9102 7.35156 19.957 7.63281 19.957C7.91406 19.957 8.19531 19.9102 8.47656 19.8164C8.75781 19.6992 9.02734 19.5352 9.28516 19.3242C9.54297 19.0898 9.77734 18.7852 9.98828 18.4102C10.1992 18.0117 10.3047 17.5312 10.3047 16.9688V9.76172C10.3047 9.10547 10.5391 8.56641 11.0078 8.14453C11.5 7.69922 12.0742 7.47656 12.7305 7.47656C14.1367 7.59375 14.9102 8.35547 15.0508 9.76172V16.9688C15.0742 17.5312 15.1914 18 15.4023 18.375C15.6133 18.7734 15.8477 19.0898 16.1055 19.3242C16.3633 19.5352 16.6211 19.6992 16.8789 19.8164C17.1602 19.9102 17.4414 19.957 17.7227 19.957C18.0039 19.957 18.2852 19.9102 18.5664 19.8164C18.8477 19.6992 19.1172 19.5352 19.375 19.3242C19.6328 19.0898 19.8672 18.7852 20.0781 18.4102C20.2891 18.0117 20.3945 17.5312 20.3945 16.9688V9.76172C20.3945 9.10547 20.6289 8.56641 21.0977 8.14453C21.5898 7.69922 22.1641 7.47656 22.8203 7.47656C24.2266 7.59375 25 8.35547 25.1406 9.76172V17.25C25.1406 18.5156 24.8594 19.6055 24.2969 20.5195C23.7578 21.4336 23.125 22.1719 22.3984 22.7344C21.6953 23.2734 20.9453 23.6836 20.1484 23.9648C19.375 24.2461 18.5781 24.3867 17.7578 24.3867C16.9609 24.3867 16.1641 24.2461 15.3672 23.9648C14.5938 23.6836 13.8438 23.2617 13.1172 22.6992C12.9766 22.6055 12.8477 22.5 12.7305 22.3828C12.5898 22.5 12.4609 22.6055 12.3438 22.6992C11.6172 23.2617 10.8555 23.6836 10.0586 23.9648C9.28516 24.2461 8.48828 24.3867 7.66797 24.3867ZM33.4023 24.4922C32.4648 24.4922 31.6797 24.1641 31.0469 23.5078C30.4375 22.8516 30.1328 22.0312 30.1328 21.0469C30.1328 20.0625 30.4375 19.2422 31.0469 18.5859C31.6797 17.9297 32.4648 17.6016 33.4023 17.6016C34.3398 17.6016 35.125 17.9297 35.7578 18.5859C36.3906 19.2422 36.707 20.0625 36.707 21.0469C36.707 22.0312 36.3906 22.8516 35.7578 23.5078C35.125 24.1641 34.3398 24.4922 33.4023 24.4922ZM46.1992 26.9883C46.0586 28.3945 45.2852 29.1562 43.8789 29.2734C43.2227 29.2734 42.6484 29.0508 42.1562 28.6055C41.6875 28.1836 41.4531 27.6445 41.4531 26.9883V10.2539C41.4766 9.59766 41.7227 9.05859 42.1914 8.63672C42.6602 8.19141 43.2227 7.96875 43.8789 7.96875H58.6445C60.707 8.03906 62.2656 8.53125 63.3203 9.44531C64.375 10.3359 65.1367 11.3555 65.6055 12.5039C66.0742 13.6289 66.3086 14.7773 66.3086 15.9492C66.3086 17.168 66.0742 18.3516 65.6055 19.5C65.1602 20.625 64.3984 21.6445 63.3203 22.5586C62.2656 23.4492 60.918 23.9062 59.2773 23.9297H50.418C49.7617 23.9297 49.2109 23.6953 48.7656 23.2266C48.2969 22.7812 48.0625 22.2305 48.0625 21.5742C48.0625 20.918 48.2852 20.3672 48.7305 19.9219C49.1992 19.4531 49.7617 19.2188 50.418 19.2188H59.418C59.8633 19.2188 60.25 19.043 60.5781 18.6914C60.9062 18.3164 61.1406 17.8945 61.2812 17.4258C61.4453 16.9336 61.5273 16.4531 61.5273 15.9844C61.5273 15.4922 61.4453 15.0117 61.2812 14.543C61.1406 14.0508 60.9062 13.6289 60.5781 13.2773C60.25 12.9023 59.8633 12.7031 59.418 12.6797H47.1133C46.5039 12.7031 46.1992 13.0078 46.1992 13.5938V26.9883ZM77.875 23.9297C75.8125 23.8594 74.2539 23.3789 73.1992 22.4883C72.1445 21.5742 71.3828 20.5547 70.9141 19.4297C70.4453 18.2812 70.2109 17.1211 70.2109 15.9492C70.2109 14.7305 70.4336 13.5586 70.8789 12.4336C71.3477 11.2852 72.1094 10.2656 73.1641 9.375C74.2422 8.46094 75.6016 7.99219 77.2422 7.96875H88.6328C90.2734 7.99219 91.6211 8.46094 92.6758 9.375C93.7539 10.2656 94.5156 11.2852 94.9609 12.4336C95.4297 13.5586 95.6641 14.7305 95.6641 15.9492C95.6641 17.1211 95.4297 18.2812 94.9609 19.4297C94.4922 20.5547 93.7305 21.5742 92.6758 22.4883C91.6211 23.3789 90.0625 23.8594 88 23.9297H77.875ZM77.1016 12.6797C76.6562 12.6797 76.2695 12.8672 75.9414 13.2422C75.6133 13.5938 75.3672 14.0156 75.2031 14.5078C75.0625 14.9766 74.9922 15.4453 74.9922 15.9141C74.9922 16.4062 75.0625 16.8984 75.2031 17.3906C75.3672 17.8594 75.6133 18.2812 75.9414 18.6562C76.2695 19.0078 76.6562 19.1953 77.1016 19.2188H88.7734C89.2188 19.1953 89.6055 19.0078 89.9336 18.6562C90.2617 18.2812 90.4961 17.8594 90.6367 17.3906C90.8008 16.8984 90.8828 16.4062 90.8828 15.9141C90.8828 15.4453 90.8008 14.9766 90.6367 14.5078C90.4961 14.0156 90.2617 13.5938 89.9336 13.2422C89.6055 12.8672 89.2188 12.6797 88.7734 12.6797H77.1016ZM102.133 7.61719C102.766 7.64062 103.305 7.875 103.75 8.32031C104.195 8.74219 104.43 9.26953 104.453 9.90234V22.0664C104.312 23.4727 103.539 24.2344 102.133 24.3516C101.477 24.3516 100.902 24.1406 100.41 23.7188C99.9414 23.2734 99.707 22.7227 99.707 22.0664V9.90234C99.7305 9.24609 99.9766 8.70703 100.445 8.28516C100.914 7.83984 101.477 7.61719 102.133 7.61719ZM99.1797 3.04688C99.1797 2.39063 99.4609 1.82813 100.023 1.35938C100.586 0.890625 101.266 0.65625 102.062 0.65625C102.859 0.65625 103.539 0.890625 104.102 1.35938C104.664 1.82813 104.945 2.39063 104.945 3.04688C104.945 3.72656 104.664 4.30078 104.102 4.76953C103.539 5.23828 102.859 5.47266 102.062 5.47266C101.266 5.47266 100.586 5.23828 100.023 4.76953C99.4609 4.30078 99.1797 3.72656 99.1797 3.04688ZM119.957 7.44141C121.176 7.44141 122.371 7.58203 123.543 7.86328C124.738 8.14453 125.875 8.56641 126.953 9.12891C128.031 9.66797 128.98 10.3945 129.801 11.3086C130.645 12.2227 131.102 13.3125 131.172 14.5781V16.0547V22.0664C131.031 23.4727 130.258 24.2344 128.852 24.3516C128.195 24.3516 127.621 24.1406 127.129 23.7188C126.66 23.2734 126.426 22.7227 126.426 22.0664V20.5195V15.668C126.379 14.9414 126.098 14.3438 125.582 13.875C125.09 13.3828 124.527 12.9961 123.895 12.7148C123.285 12.4336 122.641 12.2227 121.961 12.082C121.305 11.9414 120.637 11.8711 119.957 11.8711C119.277 11.8711 118.598 11.9414 117.918 12.082C117.262 12.2227 116.617 12.4336 115.984 12.7148C115.375 12.9961 114.812 13.3828 114.297 13.875C113.805 14.3438 113.535 14.9414 113.488 15.668V20.5195V22.0664C113.371 23.4727 112.609 24.2344 111.203 24.3516C110.547 24.3516 109.973 24.1406 109.48 23.7188C109.012 23.2734 108.777 22.7227 108.777 22.0664V16.0547V14.5781C108.848 13.3125 109.293 12.2227 110.113 11.3086C110.934 10.3945 111.883 9.66797 112.961 9.12891C114.039 8.56641 115.164 8.14453 116.336 7.86328C117.531 7.58203 118.738 7.44141 119.957 7.44141ZM143.266 2.625C143.922 2.625 144.484 2.84766 144.953 3.29297C145.422 3.71484 145.668 4.25391 145.691 4.91016V7.96875H157.645C158.301 7.96875 158.863 8.19141 159.332 8.63672C159.777 9.10547 160 9.66797 160 10.3242C160 10.9805 159.766 11.543 159.297 12.0117C158.852 12.457 158.301 12.6797 157.645 12.6797H145.691V13.3828C145.668 14.3438 145.727 15.2344 145.867 16.0547C146.031 16.8516 146.406 17.5664 146.992 18.1992C147.578 18.832 148.316 19.1719 149.207 19.2188H157.785C158.441 19.2422 158.98 19.4883 159.402 19.957C159.848 20.4258 160.07 20.9883 160.07 21.6445C160.047 22.2773 159.812 22.8164 159.367 23.2617C158.945 23.6836 158.418 23.9062 157.785 23.9297H148.012C146.371 23.8359 145.012 23.2852 143.934 22.2773C142.879 21.2461 142.117 19.9922 141.648 18.5156C141.203 17.0391 140.969 15.4688 140.945 13.8047V12.6797H136.902C136.246 12.6797 135.695 12.4453 135.25 11.9766C134.781 11.5312 134.547 10.9805 134.547 10.3242C134.547 9.66797 134.77 9.11719 135.215 8.67188C135.684 8.20312 136.246 7.96875 136.902 7.96875H140.945V4.91016C140.969 4.27734 141.203 3.75 141.648 3.32812C142.094 2.88281 142.633 2.64844 143.266 2.625Z" fill="#412C86"/>
</svg>
