<svg width="300" height="300" viewBox="0 0 300 300" fill="none" xmlns="http://www.w3.org/2000/svg">
<rect width="300" height="300" fill="#F5F5F5"/>
<g clip-path="url(#clip0_0_1)">
<mask id="mask0_0_1" style="mask-type:luminance" maskUnits="userSpaceOnUse" x="0" y="0" width="300" height="300">
<path d="M300 0H0V300H300V0Z" fill="white"/>
</mask>
<g mask="url(#mask0_0_1)">
<mask id="mask1_0_1" style="mask-type:luminance" maskUnits="userSpaceOnUse" x="0" y="0" width="300" height="300">
<path d="M300 0H0V300H300V0Z" fill="white"/>
</mask>
<g mask="url(#mask1_0_1)">
<path d="M28.9035 0L30 1.13028L2.2575 28.1398L30 55.1494L28.9035 56.2797L0 28.1398L28.9035 0Z" fill="white"/>
<path d="M51.0965 56.2797L50 55.1494L77.7425 28.1398L50 1.13028L51.0965 0L80 28.1398L51.0965 56.2797Z" fill="white"/>
<path d="M8 85C11.866 85 15 81.866 15 78C15 74.134 11.866 71 8 71C4.13401 71 1 74.134 1 78C1 81.866 4.13401 85 8 85Z" fill="white"/>
<path d="M28 83C30.7614 83 33 80.7614 33 78C33 75.2386 30.7614 73 28 73C25.2386 73 23 75.2386 23 78C23 80.7614 25.2386 83 28 83Z" stroke="white" stroke-width="4"/>
<path d="M53 78L41 84.9282V71.0718L53 78Z" fill="white"/>
<path d="M71.389 71H67.611C67.2736 71 67 71.2394 67 71.5346V84.4654C67 84.7606 67.2736 85 67.611 85H71.389C71.7264 85 72 84.7606 72 84.4654V71.5346C72 71.2394 71.7264 71 71.389 71Z" fill="white"/>
<path d="M65.389 71H61.611C61.2736 71 61 71.2394 61 71.5346V84.4654C61 84.7606 61.2736 85 61.611 85H65.389C65.7264 85 66 84.7606 66 84.4654V71.5346C66 71.2394 65.7264 71 65.389 71Z" fill="white"/>
<path d="M13 94L1 106L13 118" stroke="black"/>
<path d="M1 106H29" stroke="black"/>
<path d="M52 118L64 106L52 94" stroke="black"/>
<path d="M64 106H36" stroke="black"/>
</g>
<path fill-rule="evenodd" clip-rule="evenodd" d="M298.563 3.48221e-07H275.436C274.643 3.48221e-07 274 0.644 274 1.437V24.564C274 25.357 274.644 26 275.437 26H287.89V15.965H284.492V12.01H287.872V9.122C287.872 5.761 289.92 3.932 292.916 3.932C293.935 3.934 294.952 3.992 295.964 4.105V7.612H293.892C292.264 7.612 291.949 8.383 291.949 9.519V12.029H295.849L295.343 15.964H291.949V26H298.563C298.752 26 298.939 25.9628 299.113 25.8906C299.287 25.8184 299.446 25.7126 299.579 25.5791C299.713 25.4457 299.818 25.2873 299.891 25.1129C299.963 24.9386 300 24.7517 300 24.563V1.436C300 1.24734 299.963 1.06052 299.891 0.886236C299.818 0.711947 299.713 0.553599 299.579 0.420241C299.446 0.286883 299.287 0.181129 299.113 0.109022C298.939 0.0369153 298.752 -0.000131032 298.563 3.48221e-07" fill="#444444"/>
<path d="M260 0C256.47 0 256.027 0.015 254.64 0.078C253.257 0.141 252.312 0.362 251.485 0.683C250.618 1.00934 249.832 1.52088 249.182 2.182C248.521 2.83155 248.009 3.61746 247.682 4.485C247.362 5.312 247.143 6.257 247.079 7.64C247.015 9.027 247 9.47 247 13C247 16.53 247.015 16.973 247.078 18.36C247.141 19.743 247.362 20.688 247.683 21.515C248.015 22.37 248.459 23.095 249.182 23.818C249.831 24.4796 250.617 24.9915 251.484 25.318C252.312 25.639 253.257 25.858 254.64 25.922C256.027 25.985 256.47 26 260 26C263.53 26 263.973 25.985 265.36 25.922C266.743 25.859 267.688 25.638 268.515 25.317C269.383 24.9907 270.169 24.4788 270.818 23.817C271.479 23.1682 271.991 22.3829 272.318 21.516C272.639 20.688 272.858 19.743 272.922 18.36C272.985 16.973 273 16.53 273 13C273 9.47 272.985 9.027 272.922 7.64C272.859 6.257 272.638 5.312 272.317 4.485C271.991 3.61743 271.479 2.83149 270.818 2.182C270.169 1.5206 269.383 1.0087 268.516 0.682C267.688 0.361 266.743 0.142 265.36 0.078C263.973 0.015 263.53 0 260 0ZM260 2.342C263.471 2.342 263.882 2.355 265.253 2.418C266.521 2.476 267.209 2.688 267.667 2.866C268.232 3.0746 268.742 3.40669 269.162 3.838C269.617 4.293 269.898 4.726 270.134 5.333C270.313 5.791 270.524 6.479 270.582 7.747C270.645 9.117 270.658 9.529 270.658 13C270.658 16.471 270.645 16.882 270.582 18.253C270.524 19.521 270.312 20.209 270.134 20.667C269.926 21.2316 269.593 21.7424 269.162 22.162C268.743 22.5937 268.232 22.9258 267.667 23.134C267.209 23.312 266.521 23.524 265.253 23.582C263.883 23.645 263.472 23.658 260 23.658C256.528 23.658 256.118 23.645 254.747 23.582C253.479 23.524 252.791 23.312 252.333 23.134C251.768 22.9256 251.258 22.5935 250.838 22.162C250.406 21.7426 250.074 21.2317 249.866 20.667C249.687 20.209 249.476 19.521 249.418 18.253C249.355 16.883 249.342 16.471 249.342 13C249.342 9.529 249.355 9.118 249.418 7.747C249.476 6.479 249.688 5.791 249.866 5.333C250.075 4.76849 250.407 4.25772 250.838 3.838C251.257 3.40632 251.768 3.07418 252.333 2.866C252.791 2.687 253.479 2.476 254.747 2.418C256.117 2.355 256.529 2.342 260 2.342Z" fill="#444444"/>
<path d="M260 17.384C258.851 17.384 257.748 16.9274 256.936 16.1147C256.123 15.3021 255.667 14.1998 255.667 13.0505C255.667 11.9012 256.123 10.7989 256.936 9.98625C257.748 9.17356 258.851 8.71699 260 8.71699C261.149 8.71699 262.252 9.17356 263.064 9.98625C263.877 10.7989 264.334 11.9012 264.334 13.0505C264.334 14.1998 263.877 15.3021 263.064 16.1147C262.252 16.9274 261.149 17.384 260 17.384ZM260 6.37499C258.229 6.37499 256.531 7.07836 255.279 8.33035C254.027 9.58234 253.324 11.2804 253.324 13.051C253.324 14.8216 254.027 16.5196 255.279 17.7716C256.531 19.0236 258.229 19.727 260 19.727C261.771 19.727 263.469 19.0236 264.721 17.7716C265.973 16.5196 266.676 14.8216 266.676 13.051C266.676 11.2804 265.973 9.58234 264.721 8.33035C263.469 7.07836 261.771 6.37499 260 6.37499ZM268.5 6.11099C268.5 6.52473 268.336 6.92152 268.043 7.21408C267.751 7.50664 267.354 7.67099 266.94 7.67099C266.526 7.67099 266.129 7.50664 265.837 7.21408C265.544 6.92152 265.38 6.52473 265.38 6.11099C265.38 5.69726 265.544 5.30047 265.837 5.00791C266.129 4.71535 266.526 4.55099 266.94 4.55099C267.354 4.55099 267.751 4.71535 268.043 5.00791C268.336 5.30047 268.5 5.69726 268.5 6.11099" fill="#444444"/>
<path fill-rule="evenodd" clip-rule="evenodd" d="M244.985 26H221.015C220.455 26 220 25.545 220 24.985V1.015C220 0.455 220.455 0 221.015 0H244.985C245.545 0 246 0.455 246 1.015V24.985C246 25.545 245.545 26 244.985 26ZM235.056 7.008V13.093L230.934 7.008H226.5V19.019H230.943V12.985L235.08 19.019H239.5V7.008H235.057H235.056Z" fill="#444444"/>
</g>
</g>
<defs>
<clipPath id="clip0_0_1">
<rect width="300" height="300" fill="white"/>
</clipPath>
</defs>
</svg>
